<svg xmlns="http://www.w3.org/2000/svg" xml:space="preserve" width="192" height="192">
    <rect width="100%" height="100%" fill="transparent"/>
    <rect width="161.033" height="174.02" x="-80.516" y="-87.01" fill="none" rx="0" ry="0" transform="translate(96.5 96.1)"/>
    <path fill="#1f09ff" d="M77.82 143.98H61.04V30.79h25.72q8.62 0 16.71 1.69 8.08 1.7 14.39 5.7 6.32 4 10.01 10.63 3.7 6.62 3.7 16.32 0 11.24-5.24 19.56-5.23 8.31-15.86 12.78l26.95 46.51h-19.86l-22.8-42.81q-2.61.15-6.39.23-3.77.07-6.23.07h-4.32zm0-98.87v42.35h10.94q8.47 0 13.63-2.16 5.16-2.15 7.93-5.46 2.77-3.31 3.77-7.24t1-7.32q0-7.54-3.46-11.93-3.47-4.39-9.55-6.32-6.08-1.92-13.94-1.92z"/>
</svg>
